<svg xmlns="http://www.w3.org/2000/svg" width="342.427" height="342.147" viewBox="0 0 342.427 342.147">
  <g id="logo-icn-vector" transform="translate(-163.58 -570.787)">
    <path id="Path_18767" data-name="Path 18767" d="M163.674,641.5c-.7-16.261,5.346-30.746,15.146-42.662,11.393-13.841,25.906-23.912,44.731-26.924,24.573-3.926,45.346,2.863,63.01,19.727,12.519,11.95,24.538,24.429,36.787,36.661,8.783,8.771,13.916,8.725,22.67.218,14.45-14.048,27.475-29.66,43.283-42.2,34.172-27.108,83.375-17.618,105.993,19.681a71.546,71.546,0,0,1-10.519,88.031c-13.812,13.554-27.418,27.32-41.093,41.006-2.294,2.3-4.483,4.708-6.725,7.064a66.163,66.163,0,0,0-11.249,11.111q-19.7,19.563-39.391,39.132a71.773,71.773,0,0,1-15.767,12.4c-29.246,16.181-63.331,11.381-86.984-12.157q-20.322-20.219-40.725-40.368L232.214,741.67q-23.538-23.788-47.059-47.582a75.441,75.441,0,0,1-16.014-23.159q-1.345-3.88-2.684-7.754-1.276-7.562-2.558-15.134ZM414.61,742.061a69.465,69.465,0,0,0,11.2-11.2c18.882-19.71,40.426-36.89,56.468-59.308a11.537,11.537,0,0,0,2.977-5.788,15.191,15.191,0,0,0,1.253-2.086c9.6-24.044.558-52.623-21.331-67.447-22.291-15.094-51.859-12.72-70.747,5.886-15.226,15-30.229,30.223-45.4,45.271-10.364,10.289-18.244,10.145-28.717-.339-14.818-14.836-29.344-29.97-44.5-44.449-17.388-16.617-38.052-21.055-60.308-12.008-21.245,8.64-33.626,24.895-35.615,48.278a49.282,49.282,0,0,0,9.95,36.454,11.181,11.181,0,0,0,1.495,2.6c17.422,17.365,33.781,35.8,52.284,52.082,3.064,4.116,6.869,7.5,10.657,10.9,14.037,14.151,27.861,28.533,42.167,42.409a54.6,54.6,0,0,0,72.494,3.587C385.53,773.474,399.63,757.265,414.61,742.061Z" transform="translate(0.187)" fill="#fff" opacity="0.15"/>
    <path id="Path_18768" data-name="Path 18768" d="M425.9,612.064a66.162,66.162,0,0,1,11.249-11.111c15.836,15.859,31.493,31.89,47.576,47.49,8.082,7.84,14.675,17.44,17.325,27.435,6.42,24.188,4.012,47.76-13.243,68.079-10.41,12.26-22.894,20.67-38.495,24.808-25.717,6.817-47.909.19-66.884-17.555-13.531-12.651-26.286-26.136-39.408-39.23-7.185-7.174-11.881-7.07-19.181-.046-15.393,14.83-28.941,31.729-46.076,44.547-24.216,18.118-50.967,20.348-77.391,5.587-26.406-14.761-39.115-38.322-37.678-68.9.787-16.727,7.564-31.074,19.055-42.932,16.3-16.825,33.08-33.172,49.657-49.721q5.311,5.277,10.628,10.553c-15.813,15.853-31.786,31.556-47.369,47.628-7.426,7.662-13.261,16.181-15.548,27.269A58.107,58.107,0,0,0,208.5,748.838a56.185,56.185,0,0,0,66.987-9.456c13.876-13.766,27.642-27.636,41.483-41.437a33.5,33.5,0,0,1,5.024-4.415c9.427-6.225,20-4.805,28.792,3.7,16.071,15.577,30.74,32.666,48.03,46.909,22.308,18.377,55.394,14.824,76.115-7.317,19.417-20.75,20.02-54.6.586-75.063C459.4,644.793,442.468,628.6,425.9,612.064Z" transform="translate(0 141.155)" fill="#fff" opacity="0.15"/>
    <path id="Path_18769" data-name="Path 18769" d="M348.534,660.887c-14.088-14.134-27.815-28.659-42.374-42.294-16.25-15.221-35.551-18.744-56.721-12.025a52.848,52.848,0,0,0-22.4,14.255c-12.709,13.2-25.866,25.97-38.845,38.92-3.788-3.4-7.593-6.789-10.657-10.9,13.105-13.088,26.487-25.918,39.259-39.333,27.3-28.665,74.471-29.016,102.74.063,13.192,13.577,26.786,26.757,40.2,40.121A69.469,69.469,0,0,1,348.534,660.887Z" transform="translate(66.263 81.174)" fill="#ffedbd"/>
  </g>
</svg>
