<svg xmlns="http://www.w3.org/2000/svg" width="219.001" height="49.946" viewBox="0 0 219.001 49.946">
  <g id="logo" transform="translate(-163.58 -428.568)">
    <g id="MEDCURE" transform="translate(232.972 432.963)">
      <path id="Path_18743" data-name="Path 18743" d="M247.237,434.255a17.74,17.74,0,0,1,2.632-.2,16.848,16.848,0,0,1,2.632.2l5.64,14.082,5.81-14.082a12.453,12.453,0,0,1,2.359-.2,14.751,14.751,0,0,1,2.5.2l1.162,24.576a15.807,15.807,0,0,1-2.461.206,12.763,12.763,0,0,1-2.29-.206l-.616-16.68-4.99,11.553q-.478.068-.991.119a10.247,10.247,0,0,1-1.025.052q-.446,0-.889-.034a6.849,6.849,0,0,1-.924-.137l-4.649-11.793-.478,16.919a11.49,11.49,0,0,1-2.119.206,12.965,12.965,0,0,1-2.256-.206Z" transform="translate(-246.28 -433.845)" fill="#fff"/>
      <path id="Path_18744" data-name="Path 18744" d="M279.887,434.294h13.946a10.6,10.6,0,0,1,.2,2.085,10.972,10.972,0,0,1-.2,2.154h-8.956v5.332h7.11a11.494,11.494,0,0,1,.206,2.12,11.289,11.289,0,0,1-.206,2.153h-7.11v6.495h9.195a10.611,10.611,0,0,1,.206,2.085,10.953,10.953,0,0,1-.206,2.153H279.887Z" transform="translate(-251.688 -433.885)" fill="#fff"/>
      <path id="Path_18745" data-name="Path 18745" d="M301.64,434.216q1.435-.171,3.008-.29t3.486-.119q6.461,0,9.827,3.213t3.367,9.639q0,6.461-3.418,9.5T307.759,459.2q-1.744,0-3.213-.119t-2.906-.291Zm5.024,20.611c.2.023.467.047.785.069s.707.034,1.162.034a11.366,11.366,0,0,0,2.923-.358,5.259,5.259,0,0,0,2.341-1.316,6.619,6.619,0,0,0,1.572-2.563,14.9,14.9,0,0,0,0-8.238,6.6,6.6,0,0,0-1.572-2.6A5.614,5.614,0,0,0,311.6,438.5a9.254,9.254,0,0,0-2.718-.393q-.478,0-1.111.017a9.943,9.943,0,0,0-1.11.086Z" transform="translate(-255.188 -433.806)" fill="#fff"/>
      <path id="Path_18746" data-name="Path 18746" d="M346.15,454.143a13.864,13.864,0,0,1,.735,1.966,14.148,14.148,0,0,1,.427,2.034,16.291,16.291,0,0,1-3.2.854,21.539,21.539,0,0,1-3.059.2,12.822,12.822,0,0,1-5.092-.94,10.16,10.16,0,0,1-3.675-2.632,11.246,11.246,0,0,1-2.239-4.017,16.35,16.35,0,0,1-.752-5.058,15.848,15.848,0,0,1,.786-5.076,11.834,11.834,0,0,1,2.273-4.05,10.26,10.26,0,0,1,3.658-2.666,12.129,12.129,0,0,1,4.939-.957,20.694,20.694,0,0,1,3.025.2,13.242,13.242,0,0,1,2.991.854,7.53,7.53,0,0,1-.409,2q-.342.975-.752,1.965a15.314,15.314,0,0,0-2.12-.581,12.231,12.231,0,0,0-2.187-.171,6.161,6.161,0,0,0-5.042,2.136q-1.76,2.137-1.76,6.341,0,8.34,7.076,8.34a12.651,12.651,0,0,0,2.221-.171A14.522,14.522,0,0,0,346.15,454.143Z" transform="translate(-259.639 -433.806)" fill="#fff"/>
      <path id="Path_18747" data-name="Path 18747" d="M355.044,434.261a12.656,12.656,0,0,1,1.264-.137q.616-.034,1.265-.034.58,0,1.2.034a12.657,12.657,0,0,1,1.264.137V447.01a35.422,35.422,0,0,0,.154,3.572,7.606,7.606,0,0,0,.615,2.462,3.088,3.088,0,0,0,1.3,1.436,4.48,4.48,0,0,0,2.171.461,4.381,4.381,0,0,0,2.153-.461,3.128,3.128,0,0,0,1.282-1.436,7.628,7.628,0,0,0,.614-2.462,35.161,35.161,0,0,0,.154-3.572V434.261c.456-.068.888-.114,1.3-.137s.807-.034,1.2-.034c.41,0,.825.011,1.248.034a12.636,12.636,0,0,1,1.281.137V448.07a23.487,23.487,0,0,1-.409,4.563,8.939,8.939,0,0,1-1.47,3.538,6.936,6.936,0,0,1-2.837,2.273,13.079,13.079,0,0,1-9.024,0,6.936,6.936,0,0,1-2.837-2.273,8.939,8.939,0,0,1-1.47-3.538,23.554,23.554,0,0,1-.409-4.563Z" transform="translate(-263.782 -433.852)" fill="#fff"/>
      <path id="Path_18748" data-name="Path 18748" d="M382.825,434.216q1.5-.171,2.82-.29t2.923-.119a20.119,20.119,0,0,1,3.709.341,10.006,10.006,0,0,1,3.3,1.213,6.829,6.829,0,0,1,2.375,2.359,7.16,7.16,0,0,1,.906,3.777,7.721,7.721,0,0,1-.343,2.41,7.326,7.326,0,0,1-.871,1.828,7.535,7.535,0,0,1-1.145,1.35,8.1,8.1,0,0,1-1.162.906l-.581.376,5.982,10.391q-.685.068-1.436.136t-1.538.069a16.094,16.094,0,0,1-2.564-.2l-6.426-11.417.821-.41q.478-.239,1.162-.615a7.2,7.2,0,0,0,1.316-.94,5.147,5.147,0,0,0,1.077-1.368,4.523,4.523,0,0,0-.786-5.059,4.856,4.856,0,0,0-3.178-1.009,8.416,8.416,0,0,0-1.368.1v20.748q-.614.069-1.23.12t-1.2.051c-.388,0-.8-.013-1.23-.034s-.878-.068-1.333-.137Z" transform="translate(-268.252 -433.806)" fill="#fff"/>
      <path id="Path_18749" data-name="Path 18749" d="M407.43,434.294h13.946a10.6,10.6,0,0,1,.2,2.085,10.974,10.974,0,0,1-.2,2.154H412.42v5.332h7.11a11.563,11.563,0,0,1,.2,2.12,11.355,11.355,0,0,1-.2,2.153h-7.11v6.495h9.195a10.611,10.611,0,0,1,.2,2.085,10.953,10.953,0,0,1-.2,2.153H407.43Z" transform="translate(-272.211 -433.885)" fill="#fff"/>
    </g>
    <g id="HEALTH_MEDICAL" data-name="HEALTH MEDICAL" transform="translate(246.969 466.587)">
      <path id="Path_18750" data-name="Path 18750" d="M262.961,474.051c.1-.018.21-.03.321-.039s.222-.013.334-.013.222,0,.333.013.217.021.32.039v3.794h3.922v-3.794a2.83,2.83,0,0,1,.308-.039c.111-.008.221-.013.333-.013s.224,0,.34.013.224.021.326.039v9.216a3.072,3.072,0,0,1-.307.039c-.112.008-.227.013-.347.013s-.224,0-.34-.013a3.064,3.064,0,0,1-.314-.039V479h-3.922v4.268c-.1.017-.208.03-.314.039s-.221.013-.34.013-.225,0-.34-.013a3.053,3.053,0,0,1-.315-.039Z" transform="translate(-262.961 -473.898)" fill="#fff"/>
      <path id="Path_18751" data-name="Path 18751" d="M274.205,474.061h5.063a3.871,3.871,0,0,1,.039.563c0,.095,0,.193-.007.3a1.975,1.975,0,0,1-.032.282h-3.756v2.641h3a2.541,2.541,0,0,1,.039.276c.008.1.013.194.013.288s0,.193-.013.3a2.537,2.537,0,0,1-.039.282h-3v3.153h3.858a3.754,3.754,0,0,1,.039.563c0,.095,0,.193-.007.3a1.854,1.854,0,0,1-.032.282h-5.165Z" transform="translate(-264.77 -473.907)" fill="#fff"/>
      <path id="Path_18752" data-name="Path 18752" d="M287.517,481.14h-3.5l-.628,2.127c-.111.017-.222.03-.333.039s-.222.013-.333.013-.237,0-.352-.013a3.006,3.006,0,0,1-.314-.039l3-9.216c.111-.018.231-.03.359-.039s.26-.013.4-.013c.12,0,.244,0,.372.013s.252.021.372.039l2.987,9.216c-.1.017-.218.03-.347.039s-.252.013-.372.013-.224,0-.34-.013-.224-.022-.326-.039ZM284.364,480h2.807l-1.41-4.7Z" transform="translate(-266.034 -473.898)" fill="#fff"/>
      <path id="Path_18753" data-name="Path 18753" d="M293.345,474.051a2.832,2.832,0,0,1,.3-.039c.107-.008.22-.013.339-.013s.222,0,.334.013.218.021.321.039v8.062h3.614a2.048,2.048,0,0,1,.033.3c0,.1.006.2.006.281a3.906,3.906,0,0,1-.039.577h-4.909Z" transform="translate(-267.85 -473.898)" fill="#fff"/>
      <path id="Path_18754" data-name="Path 18754" d="M301.644,475.2h-2.4a2.541,2.541,0,0,1-.039-.282c-.008-.1-.013-.2-.013-.3s0-.189.013-.287a2.537,2.537,0,0,1,.039-.276h6.1a2.385,2.385,0,0,1,.039.269c.008.094.013.187.013.282s-.005.194-.013.3a2.341,2.341,0,0,1-.039.289h-2.4v8.075a4.914,4.914,0,0,1-.641.039,5.332,5.332,0,0,1-.667-.039Z" transform="translate(-268.792 -473.907)" fill="#fff"/>
      <path id="Path_18755" data-name="Path 18755" d="M309.019,474.051c.1-.018.209-.03.32-.039s.222-.013.334-.013.221,0,.332.013.218.021.321.039v3.794h3.923v-3.794a2.841,2.841,0,0,1,.307-.039c.112-.008.222-.013.334-.013s.224,0,.34.013.224.021.327.039v9.216a3.109,3.109,0,0,1-.309.039c-.111.008-.226.013-.346.013s-.224,0-.34-.013a3.037,3.037,0,0,1-.314-.039V479h-3.923v4.268c-.1.017-.207.03-.314.039s-.221.013-.339.013-.225,0-.34-.013a3,3,0,0,1-.314-.039Z" transform="translate(-270.372 -473.898)" fill="#fff"/>
      <path id="Path_18756" data-name="Path 18756" d="M325.815,476.133a1.119,1.119,0,0,0,.365.878,1.732,1.732,0,0,0,1.173.327h2.794l1.179-1.615h.1v1.615H333.1a2.18,2.18,0,0,1,.051.5c0,.094-.005.185-.013.275a2.592,2.592,0,0,1-.039.263h-1.666v1.9a3.275,3.275,0,0,1-.269,1.372,2.593,2.593,0,0,1-.769.981,3.372,3.372,0,0,1-1.2.582,5.8,5.8,0,0,1-1.544.193,5.485,5.485,0,0,1-1.308-.154,3.29,3.29,0,0,1-1.108-.487,2.421,2.421,0,0,1-.763-.859,2.651,2.651,0,0,1-.282-1.269,2.906,2.906,0,0,1,.122-.833,3.029,3.029,0,0,1,.346-.763,2.85,2.85,0,0,1,.526-.615,2.287,2.287,0,0,1,.648-.4,2.5,2.5,0,0,1-.93-.7,1.851,1.851,0,0,1-.378-1.223,2.088,2.088,0,0,1,.218-.981,2.013,2.013,0,0,1,.59-.693,2.569,2.569,0,0,1,.878-.409,4.145,4.145,0,0,1,1.07-.134,6.165,6.165,0,0,1,.744.05,4.333,4.333,0,0,1,.858.206,2.3,2.3,0,0,1-.076.519,1.681,1.681,0,0,1-.206.442,4.135,4.135,0,0,0-1.244-.192,2.042,2.042,0,0,0-.712.108,1.435,1.435,0,0,0-.474.282,1.036,1.036,0,0,0-.268.391A1.238,1.238,0,0,0,325.815,476.133Zm1.936,6.114a3.325,3.325,0,0,0,1.224-.193,1.847,1.847,0,0,0,.749-.512,1.8,1.8,0,0,0,.372-.743,3.672,3.672,0,0,0,.1-.872V478.4h-2.6a2.087,2.087,0,0,0-.832.16,1.794,1.794,0,0,0-.628.442,2.045,2.045,0,0,0-.4.647,2.138,2.138,0,0,0-.141.776,1.674,1.674,0,0,0,.551,1.352A2.414,2.414,0,0,0,327.751,482.248Z" transform="translate(-272.813 -473.878)" fill="#fff"/>
      <path id="Path_18757" data-name="Path 18757" d="M341.645,474.051a3.356,3.356,0,0,1,.352-.039c.133-.008.258-.013.378-.013s.25,0,.391.013a2.894,2.894,0,0,1,.352.039l2.385,5.768,2.4-5.768a2.381,2.381,0,0,1,.321-.039c.128-.008.251-.013.371-.013s.235,0,.372.013a2.861,2.861,0,0,1,.346.039l.436,9.216c-.1.017-.207.03-.314.039s-.216.013-.327.013-.219,0-.326-.013-.207-.022-.3-.039l-.294-7.165-2.256,5.256a3.607,3.607,0,0,1-.526.037,3.164,3.164,0,0,1-.487-.037l-2.179-5.295-.295,7.2c-.094.017-.193.03-.3.039s-.2.013-.295.013c-.111,0-.217,0-.32-.013s-.2-.022-.295-.039Z" transform="translate(-275.556 -473.898)" fill="#fff"/>
      <path id="Path_18758" data-name="Path 18758" d="M354.647,474.061h5.064a3.871,3.871,0,0,1,.039.563c0,.095,0,.193-.007.3a2.116,2.116,0,0,1-.032.282h-3.757v2.641h3a2.78,2.78,0,0,1,.039.276c.008.1.013.194.013.288s0,.193-.013.3a2.765,2.765,0,0,1-.039.282h-3v3.153h3.859a3.87,3.87,0,0,1,.039.563c0,.095,0,.193-.007.3a1.974,1.974,0,0,1-.032.282h-5.166Z" transform="translate(-277.714 -473.907)" fill="#fff"/>
      <path id="Path_18759" data-name="Path 18759" d="M363.614,474.034q.435-.05,1.051-.1t1.2-.044a4.273,4.273,0,0,1,4.82,4.768,4.725,4.725,0,0,1-1.224,3.576,5.1,5.1,0,0,1-3.647,1.167c-.4,0-.8-.015-1.193-.045s-.73-.066-1.012-.109Zm1.307,8.139c.119.017.267.032.442.044s.361.019.557.019a5.116,5.116,0,0,0,1.379-.173,2.592,2.592,0,0,0,1.07-.582,2.637,2.637,0,0,0,.691-1.11,5.36,5.36,0,0,0,.244-1.749,4.872,4.872,0,0,0-.244-1.64,2.844,2.844,0,0,0-.685-1.108,2.617,2.617,0,0,0-1.057-.622,4.54,4.54,0,0,0-1.358-.192c-.162,0-.341,0-.533.006a3.442,3.442,0,0,0-.506.045Z" transform="translate(-279.157 -473.88)" fill="#fff"/>
      <path id="Path_18760" data-name="Path 18760" d="M375.04,474.051c.1-.018.209-.03.321-.039s.222-.013.332-.013.222,0,.334.013.218.021.321.039v9.216c-.1.017-.207.03-.314.039s-.221.013-.341.013-.223,0-.339-.013a3.008,3.008,0,0,1-.314-.039Z" transform="translate(-280.996 -473.898)" fill="#fff"/>
      <path id="Path_18761" data-name="Path 18761" d="M385.862,481.9a3.456,3.456,0,0,1,.358,1.064,5.09,5.09,0,0,1-1.1.333,6.771,6.771,0,0,1-1.218.1,4.73,4.73,0,0,1-1.8-.327,3.655,3.655,0,0,1-1.352-.936,4.142,4.142,0,0,1-.846-1.481,6.1,6.1,0,0,1-.3-1.961,6.327,6.327,0,0,1,.3-1.993,4.316,4.316,0,0,1,.846-1.519,3.689,3.689,0,0,1,1.346-.968,4.5,4.5,0,0,1,1.781-.339,6.627,6.627,0,0,1,1.256.1,7.052,7.052,0,0,1,.936.243,2.409,2.409,0,0,1-.109.545c-.056.167-.123.345-.2.532-.128-.043-.251-.081-.371-.115s-.248-.065-.385-.09a4.066,4.066,0,0,0-.455-.058q-.249-.019-.571-.019a2.647,2.647,0,0,0-2.172.948,4.214,4.214,0,0,0-.776,2.73,5.115,5.115,0,0,0,.217,1.577,2.97,2.97,0,0,0,.616,1.1,2.5,2.5,0,0,0,.955.654,3.393,3.393,0,0,0,1.25.218,4.856,4.856,0,0,0,.973-.09A4.163,4.163,0,0,0,385.862,481.9Z" transform="translate(-281.731 -473.878)" fill="#fff"/>
      <path id="Path_18762" data-name="Path 18762" d="M394.615,481.14h-3.5l-.628,2.127c-.112.017-.222.03-.333.039s-.222.013-.333.013-.237,0-.352-.013a3.114,3.114,0,0,1-.315-.039l3-9.216c.111-.018.231-.03.359-.039s.261-.013.4-.013c.118,0,.243,0,.371.013s.253.021.373.039l2.986,9.216c-.1.017-.218.03-.347.039s-.253.013-.371.013-.225,0-.341-.013-.224-.022-.326-.039ZM391.461,480h2.808l-1.41-4.7Z" transform="translate(-283.267 -473.898)" fill="#fff"/>
      <path id="Path_18763" data-name="Path 18763" d="M400.444,474.051a2.858,2.858,0,0,1,.3-.039q.16-.013.34-.013c.111,0,.222,0,.332.013s.218.021.32.039v8.062h3.616a2.49,2.49,0,0,1,.032.3c0,.1.007.2.007.281a4.148,4.148,0,0,1-.039.577h-4.909Z" transform="translate(-285.084 -473.898)" fill="#fff"/>
    </g>
    <g id="vector">
      <path id="Path_18764" data-name="Path 18764" d="M163.627,438.89a9.094,9.094,0,0,1,2.211-6.227,10.474,10.474,0,0,1,6.53-3.93,10.283,10.283,0,0,1,9.2,2.88c1.828,1.744,3.582,3.566,5.37,5.352,1.282,1.28,2.031,1.274,3.309.032a87.676,87.676,0,0,1,6.318-6.16A10.528,10.528,0,0,1,210.5,446.56c-2.016,1.979-4,3.987-6,5.986-.335.336-.654.687-.982,1.031a9.6,9.6,0,0,0-1.642,1.622q-2.876,2.855-5.75,5.713a10.4,10.4,0,0,1-15,.035q-2.967-2.952-5.945-5.894l-1.551-1.541q-3.436-3.471-6.87-6.945a11.024,11.024,0,0,1-2.338-3.381l-.392-1.132q-.186-1.105-.373-2.209Zm36.631,14.681a10.143,10.143,0,0,0,1.635-1.635c2.756-2.876,5.9-5.384,8.243-8.657a1.691,1.691,0,0,0,.435-.845,2.272,2.272,0,0,0,.183-.3,8.319,8.319,0,0,0-3.114-9.846,8.169,8.169,0,0,0-10.327.858c-2.223,2.189-4.413,4.413-6.628,6.61-1.513,1.5-2.663,1.48-4.192-.05-2.163-2.166-4.284-4.375-6.5-6.489a7.757,7.757,0,0,0-8.8-1.753,7.886,7.886,0,0,0-5.2,7.048,7.2,7.2,0,0,0,1.452,5.321,1.634,1.634,0,0,0,.218.38c2.543,2.535,4.931,5.227,7.632,7.6a11.158,11.158,0,0,0,1.556,1.592c2.049,2.066,4.067,4.164,6.156,6.19a7.97,7.97,0,0,0,10.583.524A83.344,83.344,0,0,0,200.259,453.57Z" transform="translate(-0.006 0)" fill="#fff"/>
      <path id="Path_18765" data-name="Path 18765" d="M201.873,459.983a9.6,9.6,0,0,1,1.642-1.622c2.312,2.315,4.6,4.655,6.945,6.932a9.071,9.071,0,0,1,2.529,4c.937,3.531.586,6.971-1.933,9.938a10.851,10.851,0,0,1-5.619,3.621,9.833,9.833,0,0,1-9.764-2.563c-1.975-1.847-3.837-3.815-5.753-5.727-1.049-1.047-1.734-1.033-2.8-.007-2.247,2.165-4.225,4.632-6.726,6.5a9.792,9.792,0,0,1-11.3.815,10.247,10.247,0,0,1-5.5-10.057,9.456,9.456,0,0,1,2.782-6.268c2.379-2.455,4.829-4.842,7.249-7.258l1.551,1.541c-2.308,2.315-4.64,4.607-6.915,6.954a7.95,7.95,0,0,0-2.27,3.981,8.482,8.482,0,0,0,4.143,9.178,8.2,8.2,0,0,0,9.779-1.38c2.026-2.01,4.035-4.035,6.056-6.049a4.848,4.848,0,0,1,.733-.644,3.19,3.19,0,0,1,4.2.54c2.346,2.274,4.487,4.769,7.011,6.848a8.26,8.26,0,0,0,11.2-12.026C206.763,464.76,204.292,462.4,201.873,459.983Z" transform="translate(0 -4.784)" fill="#fff"/>
      <path id="Path_18766" data-name="Path 18766" d="M202.5,456.321c-2.057-2.063-4.06-4.185-6.186-6.175a7.894,7.894,0,0,0-8.28-1.755,7.716,7.716,0,0,0-3.27,2.082c-1.855,1.927-3.776,3.791-5.671,5.681a11.158,11.158,0,0,1-1.556-1.592c1.913-1.911,3.866-3.784,5.731-5.742a10.475,10.475,0,0,1,15,.009c1.926,1.981,3.91,3.906,5.868,5.856A10.145,10.145,0,0,1,202.5,456.321Z" transform="translate(-2.246 -2.751)" fill="#efe0bc"/>
    </g>
  </g>
</svg>
